<svg width="175" height="175" viewBox="0 0 175 175" fill="none" xmlns="http://www.w3.org/2000/svg">
<path d="M0 87.5C0 64.2936 9.21872 42.0376 25.6282 25.6282C42.0376 9.21872 64.2936 0 87.5 0C110.706 0 132.962 9.21872 149.372 25.6282C165.781 42.0376 175 64.2936 175 87.5C175 110.706 165.781 132.962 149.372 149.372C132.962 165.781 110.706 175 87.5 175C64.2936 175 42.0376 165.781 25.6282 149.372C9.21872 132.962 0 110.706 0 87.5Z" fill="#424D98"/>
<path d="M102.85 26.2V70.94L78.24 81.35V129.57L57.4 138.39L36.56 129.57V36.61L82.01 17.38L102.85 26.2Z" fill="#FF0000"/>
<path d="M57.4 45.42L102.85 26.2M57.4 45.42V90.17V138.39M57.4 45.42L36.56 36.61M102.85 26.2V70.94L78.24 81.35V129.57L57.4 138.39M102.85 26.2L82.01 17.38L36.56 36.61M57.4 138.39L36.56 129.57V36.61" stroke="black"/>
<path d="M141.44 42.65V87.4L116.83 97.81V121.92V146.02L106.41 150.43L95.99 154.84L75.15 146.02V53.06L120.6 33.83L141.44 42.65Z" fill="#FF0000"/>
<path d="M95.99 61.88L141.44 42.65M95.99 61.88L75.15 53.06M95.99 61.88V108.36V154.84M141.44 42.65V87.4L116.83 97.81V121.92V146.02L106.41 150.43L95.99 154.84M141.44 42.65L120.6 33.83L75.15 53.06M75.15 53.06V146.02L95.99 154.84" stroke="black"/>
<path d="M95.99 61.88V154.84L75.15 146.02V53.06L95.99 61.88Z" fill="#E40000"/>
<path d="M95.99 61.88V154.84M95.99 61.88L75.15 53.06V146.02L95.99 154.84M95.99 61.88V108.36V154.84" stroke="black"/>
<path d="M57.4 45.45V138.42L36.56 129.6V36.64L57.4 45.45Z" fill="#E40000"/>
<path d="M57.4 45.45V138.42M57.4 45.45L36.56 36.64V129.6L57.4 138.42M57.4 45.45V91.94V138.42" stroke="black"/>
</svg>
